<?xml version="1.0" ?><svg viewBox="0 0 40 40" xmlns="http://www.w3.org/2000/svg"><title/><g id="Confluence"><path d="M25.6,22c1.86.9,3.92,1.87,5,2.36a.76.76,0,0,1,.38,1l-2.36,5.34v0a.77.77,0,0,1-1,.36l-4.92-2.34c-3.57-1.71-5.55-2.1-7.51,1.14l-.74,1.23h0a.76.76,0,0,1-1.05.25l-5-3.06a.76.76,0,0,1-.25-1l.76-1.25C13.22,19,18.91,18.79,25.6,22Zm5.53-8.1c.25-.4.53-.87.76-1.25a.76.76,0,0,0-.25-1l-5-3.05a.76.76,0,0,0-1.06.21l0,0c-.19.33-.45.77-.73,1.23-2,3.24-3.94,2.85-7.51,1.14L12.43,8.89a.75.75,0,0,0-1,.37v0L9,14.62a.78.78,0,0,0,.38,1c1,.49,3.11,1.46,5,2.36C21.09,21.23,26.78,21,31.13,13.94Z"/></g></svg>