<svg xmlns="http://www.w3.org/2000/svg" width="70" height="85" viewBox="0 0 70 85">
  <g id="Group_2" data-name="Group 2" transform="translate(-270.543 -722.023)">
    <g id="Group_1" data-name="Group 1" transform="translate(0 -9)">
      <path id="Path_2" data-name="Path 2" d="M114.845,127.011,83.382,146.5V131.325l19.6-11.811ZM117,124.877V84.128L105.491,91.41v26.2Zm-67.845,2.134L80.618,146.5V131.325L61,119.514ZM47,124.877V84.128L58.509,91.41v26.2Zm1.351-43.392L80.618,61.5V76.167L59.942,88.621l-.165.1Zm67.3,0L83.382,61.5V76.167L104.058,88.61l.165.1,11.426-7.226Z" transform="translate(223.543 669.523)" fill="#8ed6fb"/>
      <path id="Path_3" data-name="Path 3" d="M204.746,263.772,185.4,252.119V229.051l19.346,12.228Zm2.764,0,19.346-11.641V229.051L207.51,241.279Zm-20.8-37.385L206.128,214.7l19.418,11.686L206.128,238.66Z" transform="translate(99.415 533.621)" fill="#1c78c0"/>
    </g>
  </g>
</svg>
